<svg width="27" height="27" viewBox="0 0 27 27" fill="none" xmlns="http://www.w3.org/2000/svg">
<path opacity="0.5" d="M7.67828 11.212C7.67828 9.67344 7.67828 8.90417 8.15704 8.42651C8.63361 7.94775 9.40288 7.94775 10.9425 7.94775H15.2948C16.8334 7.94775 17.6026 7.94775 18.0803 8.42651C18.559 8.90417 18.559 9.67344 18.559 11.212V15.5643C18.559 17.1028 18.559 17.8721 18.0803 18.3498C17.6026 18.8285 16.8334 18.8285 15.2948 18.8285H10.9425C9.40397 18.8285 8.6347 18.8285 8.15704 18.3498C7.67828 17.8732 7.67828 17.1039 7.67828 15.5643V11.212Z" stroke="#81878C" stroke-width="1.39896"/>
<path d="M13.585 11.2119L12.0302 13.3881H14.2063L12.6514 15.5642" stroke="#81878C" stroke-width="1.39896" stroke-linecap="round" stroke-linejoin="round"/>
<path d="M4.41382 13.3882C4.41382 9.28507 4.41382 7.23296 5.68904 5.95882C6.96318 4.68359 9.01529 4.68359 13.1184 4.68359C17.2216 4.68359 19.2737 4.68359 20.5478 5.95882C21.823 7.23296 21.823 9.28507 21.823 13.3882C21.823 17.4913 21.823 19.5434 20.5478 20.8176C19.2737 22.0928 17.2216 22.0928 13.1184 22.0928C9.01529 22.0928 6.96318 22.0928 5.68904 20.8176C4.41382 19.5434 4.41382 17.4913 4.41382 13.3882Z" stroke="#81878C" stroke-width="1.39896"/>
<path opacity="0.5" d="M4.41449 13.3881H2.23834M23.9999 13.3881H21.8237M4.41449 10.1239H2.23834M23.9999 10.1239H21.8237M4.41449 16.6523H2.23834M23.9999 16.6523H21.8237M13.1191 22.0927V24.2688M13.1191 2.50732V4.68348M9.85487 22.0927V24.2688M9.85487 2.50732V4.68348M16.3833 22.0927V24.2688M16.3833 2.50732V4.68348" stroke="#81878C" stroke-width="1.39896" stroke-linecap="round"/>
</svg>
