<svg width="24" height="23" viewBox="0 0 24 23" fill="none" xmlns="http://www.w3.org/2000/svg">
<path d="M10.1188 9.43961C12.1791 9.43961 13.8493 7.76939 13.8493 5.70906C13.8493 3.64874 12.1791 1.97852 10.1188 1.97852C8.05847 1.97852 6.38824 3.64874 6.38824 5.70906C6.38824 7.76939 8.05847 9.43961 10.1188 9.43961Z" stroke="#81878C" stroke-width="1.39896"/>
<path d="M17.58 16.4342C17.58 18.7518 17.58 20.631 10.1189 20.631C2.65784 20.631 2.65784 18.7518 2.65784 16.4342C2.65784 14.1166 5.99854 12.2373 10.1189 12.2373C14.2393 12.2373 17.58 14.1166 17.58 16.4342Z" stroke="#81878C" stroke-width="1.39896"/>
<path d="M18.5125 1.97852C18.5125 1.97852 20.3778 3.09768 20.3778 5.70906C20.3778 8.32044 18.5125 9.43961 18.5125 9.43961M16.6472 3.84379C16.6472 3.84379 17.5799 4.40337 17.5799 5.70906C17.5799 7.01475 16.6472 7.57434 16.6472 7.57434" stroke="#81878C" stroke-width="1.39896" stroke-linecap="round"/>
</svg>
